<svg width="109" height="110" viewBox="0 0 109 110" fill="none" xmlns="http://www.w3.org/2000/svg">
<path opacity="0.06" d="M108.009 55C108.009 25.1634 83.8196 0.973633 53.9829 0.973633C24.1463 0.973633 -0.0434723 25.1634 -0.0434723 55C-0.0434723 84.8367 24.1463 109.026 53.9829 109.026C53.9898 109.026 53.9932 109.026 54 109.026C83.8298 109.016 108.009 84.8298 108.009 55Z" fill="url(#paint0_linear)"/>
<path opacity="0.13" d="M107.019 55C107.019 25.7099 83.273 1.96429 53.9829 1.96429C24.6929 1.96429 0.947205 25.7099 0.947205 55C0.947205 84.2901 24.6929 108.036 53.9829 108.036C53.9897 108.036 53.9932 108.036 54 108.036C83.2832 108.029 107.022 84.2832 107.019 55Z" fill="url(#paint1_linear)"/>
<path opacity="0.19" d="M106.028 55C106.028 26.2565 82.7264 2.95496 53.9829 2.95496C25.2394 2.95496 1.93788 26.2565 1.93788 55C1.93788 83.7435 25.2394 107.045 53.9829 107.045C53.9897 107.045 53.9932 107.045 54 107.045C82.7366 107.038 106.031 83.7366 106.028 55Z" fill="url(#paint2_linear)"/>
<path opacity="0.25" d="M105.034 55C105.03 26.8065 82.173 3.94904 53.9795 3.95245C25.786 3.95587 2.92858 26.8133 2.93199 55.0068C2.93541 83.2003 25.7929 106.058 53.9863 106.054C53.9898 106.054 53.9966 106.054 54 106.054C82.1901 106.044 105.037 83.19 105.034 55Z" fill="url(#paint3_linear)"/>
<path opacity="0.31" d="M104.043 55C104.04 27.3531 81.6264 4.93976 53.9795 4.94318C26.3326 4.94659 3.91925 27.3599 3.92267 55.0068C3.92608 82.6537 26.3394 105.067 53.9863 105.064C53.9898 105.064 53.9966 105.064 54 105.064C81.6435 105.053 104.047 82.6435 104.043 55Z" fill="url(#paint4_linear)"/>
<path opacity="0.38" d="M103.052 55C103.049 27.8997 81.0798 5.93042 53.9795 5.93384C26.8792 5.93725 4.90994 27.9065 4.91336 55.0068C4.91678 82.1071 26.886 104.076 53.9863 104.073C53.9898 104.073 53.9966 104.073 54 104.073C81.0935 104.063 103.056 82.0935 103.052 55Z" fill="url(#paint5_linear)"/>
<path opacity="0.44" d="M102.062 55C102.062 28.4463 80.5366 6.92114 53.9829 6.92114C27.4292 6.92114 5.90404 28.4463 5.90404 55C5.90404 81.5537 27.4292 103.079 53.9829 103.079C53.9897 103.079 53.9932 103.079 54 103.079C80.5469 103.069 102.062 81.5469 102.062 55Z" fill="url(#paint6_linear)"/>
<path opacity="0.5" d="M101.071 55C101.071 28.9929 79.9901 7.9118 53.9829 7.9118C27.9758 7.9118 6.89471 28.9929 6.89471 55C6.89471 81.0071 27.9758 102.088 53.9829 102.088C53.9897 102.088 53.9932 102.088 54 102.088C80.0003 102.081 101.075 81.0003 101.071 55Z" fill="url(#paint7_linear)"/>
<path opacity="0.56" d="M100.08 55C100.08 29.5394 79.4435 8.90247 53.9829 8.90247C28.5224 8.90247 7.88541 29.5394 7.88541 55C7.88541 80.4605 28.5224 101.098 53.9829 101.098C53.9897 101.098 53.9932 101.098 54 101.098C79.4537 101.087 100.08 80.4537 100.08 55Z" fill="url(#paint8_linear)"/>
<path opacity="0.63" d="M99.0932 55C99.0932 30.0963 78.9037 9.90686 54 9.90686C29.0963 9.90686 8.90683 30.0963 8.90683 55C8.90683 79.9038 29.0963 100.093 54 100.093C78.9037 100.093 99.0932 79.9038 99.0932 55Z" fill="url(#paint9_linear)"/>
<path opacity="0.69" d="M98.0956 55C98.0922 30.636 78.34 10.8907 53.9761 10.8941C29.6121 10.8975 9.86676 30.6497 9.87018 55.0137C9.87359 79.3777 29.6258 99.123 53.9897 99.1196C53.9932 99.1196 53.9966 99.1196 54 99.1196C78.3571 99.1093 98.099 79.3572 98.0956 55Z" fill="url(#paint10_linear)"/>
<path opacity="0.75" d="M97.105 55C97.1016 31.186 77.7935 11.8779 53.9795 11.8813C30.1655 11.8848 10.8575 31.1928 10.8609 55.0068C10.8643 78.8208 30.1724 98.1288 53.9863 98.1254C53.9898 98.1254 53.9966 98.1254 54 98.1254C77.8106 98.1152 97.1084 78.8105 97.105 55Z" fill="url(#paint11_linear)"/>
<path opacity="0.81" d="M96.1143 55C96.1109 31.7326 77.2469 12.8687 53.9795 12.8721C30.7121 12.8755 11.8481 31.7395 11.8515 55.0069C11.855 78.2742 30.7189 97.1382 53.9863 97.1348C53.9897 97.1348 53.9966 97.1348 54 97.1348C77.264 97.1246 96.1177 78.264 96.1143 55Z" fill="url(#paint12_linear)"/>
<path opacity="0.88" d="M95.1236 55C95.1202 32.2792 76.7003 13.8593 53.9795 13.8627C31.2587 13.8661 12.8388 32.286 12.8422 55.0068C12.8456 77.7276 31.2655 96.1475 53.9863 96.1441C53.9897 96.1441 53.9966 96.1441 54 96.1441C76.7174 96.1373 95.127 77.7174 95.1236 55Z" fill="url(#paint13_linear)"/>
<path opacity="0.94" d="M94.1329 55C94.1295 32.8258 76.1537 14.85 53.9795 14.8534C31.8053 14.8568 13.8295 32.8326 13.8329 55.0068C13.8363 77.181 31.8121 95.1568 53.9863 95.1534C53.9898 95.1534 53.9966 95.1534 54 95.1534C76.1674 95.1432 94.1364 77.1674 94.1329 55Z" fill="url(#paint14_linear)"/>
<path d="M93.1388 55C93.1354 33.3758 75.6037 15.8441 53.9795 15.8475C32.3553 15.851 14.8236 33.3826 14.827 55.0068C14.8304 76.6311 32.3621 94.1627 53.9864 94.1593C53.9898 94.1593 53.9966 94.1593 54 94.1593C75.6208 94.1491 93.1423 76.6208 93.1388 55Z" fill="url(#paint15_linear)"/>
<path d="M88.5509 70.5093C97.1255 51.4198 88.5988 28.9962 69.5127 20.4251C50.4267 11.854 27.9997 20.3739 19.4252 39.4633C10.8506 58.5528 19.3773 80.9764 38.4634 89.5475C38.4668 89.5509 38.4702 89.5509 38.4736 89.5543C57.563 98.1152 79.9798 89.5919 88.5509 70.5093Z" fill="url(#paint16_linear)"/>
<path d="M91.8783 55.0034C91.8783 75.9308 74.9103 92.8988 53.9829 92.8988C33.0556 92.8988 16.0876 75.9308 16.0876 55.0034C16.0876 34.0761 33.0556 17.1081 53.9829 17.1081C53.9898 17.1081 53.9932 17.1081 54 17.1081C74.9171 17.132 91.8646 34.0863 91.8783 55.0034Z" fill="url(#paint17_linear)"/>
<rect x="52.0588" y="44" width="3.88235" height="22" fill="#07608D"/>
<rect x="43" y="56.9412" width="3.88235" height="22" transform="rotate(-90 43 56.9412)" fill="#07608D"/>
<defs>
<linearGradient id="paint0_linear" x1="0.308425" y1="52.3619" x2="107.692" y2="57.6399" gradientUnits="userSpaceOnUse">
<stop stop-color="white"/>
<stop offset="0.27" stop-color="#FBFBFC"/>
<stop offset="0.54" stop-color="#EFF1F2"/>
<stop offset="0.8" stop-color="#DCDFE2"/>
<stop offset="1" stop-color="#C7CCD0"/>
</linearGradient>
<linearGradient id="paint1_linear" x1="1.76384" y1="49.857" x2="106.271" y2="60.1498" gradientUnits="userSpaceOnUse">
<stop stop-color="white"/>
<stop offset="0.27" stop-color="#FBFBFC"/>
<stop offset="0.54" stop-color="#EFF1F2"/>
<stop offset="0.8" stop-color="#DCDFE2"/>
<stop offset="1" stop-color="#C7CCD0"/>
</linearGradient>
<linearGradient id="paint2_linear" x1="3.31797" y1="47.4847" x2="104.743" y2="62.5295" gradientUnits="userSpaceOnUse">
<stop stop-color="white"/>
<stop offset="0.27" stop-color="#FBFBFC"/>
<stop offset="0.54" stop-color="#EFF1F2"/>
<stop offset="0.8" stop-color="#DCDFE1"/>
<stop offset="1" stop-color="#C7CCD0"/>
</linearGradient>
<linearGradient id="paint3_linear" x1="4.9673" y1="45.2538" x2="103.12" y2="64.7771" gradientUnits="userSpaceOnUse">
<stop stop-color="white"/>
<stop offset="0.27" stop-color="#FBFBFC"/>
<stop offset="0.54" stop-color="#EFF1F2"/>
<stop offset="0.8" stop-color="#DCDFE1"/>
<stop offset="1" stop-color="#C7CCD0"/>
</linearGradient>
<linearGradient id="paint4_linear" x1="6.70301" y1="43.1613" x2="101.412" y2="66.883" gradientUnits="userSpaceOnUse">
<stop stop-color="white"/>
<stop offset="0.27" stop-color="#FBFBFC"/>
<stop offset="0.54" stop-color="#EFF1F2"/>
<stop offset="0.8" stop-color="#DBDFE1"/>
<stop offset="1" stop-color="#C7CCD0"/>
</linearGradient>
<linearGradient id="paint5_linear" x1="8.5133" y1="41.2113" x2="99.6254" y2="68.8479" gradientUnits="userSpaceOnUse">
<stop stop-color="white"/>
<stop offset="0.27" stop-color="#FBFBFC"/>
<stop offset="0.53" stop-color="#EFF1F2"/>
<stop offset="0.8" stop-color="#DBDEE1"/>
<stop offset="1" stop-color="#C7CCD0"/>
</linearGradient>
<linearGradient id="paint6_linear" x1="10.3896" y1="39.4015" x2="97.7747" y2="70.6695" gradientUnits="userSpaceOnUse">
<stop stop-color="white"/>
<stop offset="0.27" stop-color="#FBFBFC"/>
<stop offset="0.53" stop-color="#EFF0F2"/>
<stop offset="0.8" stop-color="#DBDEE1"/>
<stop offset="1" stop-color="#C7CCD0"/>
</linearGradient>
<linearGradient id="paint7_linear" x1="12.3233" y1="37.7443" x2="95.8618" y2="72.3465" gradientUnits="userSpaceOnUse">
<stop stop-color="white"/>
<stop offset="0.27" stop-color="#FBFBFC"/>
<stop offset="0.53" stop-color="#EFF0F2"/>
<stop offset="0.8" stop-color="#DBDEE1"/>
<stop offset="1" stop-color="#C7CCD0"/>
</linearGradient>
<linearGradient id="paint8_linear" x1="14.3012" y1="36.2311" x2="93.9009" y2="73.8805" gradientUnits="userSpaceOnUse">
<stop stop-color="white"/>
<stop offset="0.27" stop-color="#FBFBFC"/>
<stop offset="0.53" stop-color="#EFF0F1"/>
<stop offset="0.8" stop-color="#DBDEE1"/>
<stop offset="1" stop-color="#C7CCD0"/>
</linearGradient>
<linearGradient id="paint9_linear" x1="16.321" y1="34.8603" x2="91.9033" y2="75.2596" gradientUnits="userSpaceOnUse">
<stop stop-color="white"/>
<stop offset="0.27" stop-color="#FBFBFC"/>
<stop offset="0.53" stop-color="#EFF0F1"/>
<stop offset="0.8" stop-color="#DBDEE0"/>
<stop offset="1" stop-color="#C7CCD0"/>
</linearGradient>
<linearGradient id="paint10_linear" x1="18.354" y1="33.6523" x2="89.8676" y2="76.5147" gradientUnits="userSpaceOnUse">
<stop stop-color="white"/>
<stop offset="0.26" stop-color="#FBFBFC"/>
<stop offset="0.53" stop-color="#EFF0F1"/>
<stop offset="0.81" stop-color="#DADEE0"/>
<stop offset="1" stop-color="#C7CCD0"/>
</linearGradient>
<linearGradient id="paint11_linear" x1="20.4144" y1="32.5751" x2="87.8185" y2="77.6102" gradientUnits="userSpaceOnUse">
<stop stop-color="white"/>
<stop offset="0.26" stop-color="#FBFBFC"/>
<stop offset="0.53" stop-color="#EFF0F1"/>
<stop offset="0.81" stop-color="#DADDE0"/>
<stop offset="1" stop-color="#C7CCD0"/>
</linearGradient>
<linearGradient id="paint12_linear" x1="22.4823" y1="31.6407" x2="85.7562" y2="78.5684" gradientUnits="userSpaceOnUse">
<stop stop-color="white"/>
<stop offset="0.26" stop-color="#FBFBFC"/>
<stop offset="0.53" stop-color="#EFF0F1"/>
<stop offset="0.81" stop-color="#DADDE0"/>
<stop offset="1" stop-color="#C7CCD0"/>
</linearGradient>
<linearGradient id="paint13_linear" x1="24.5517" y1="30.8491" x2="83.6921" y2="79.3858" gradientUnits="userSpaceOnUse">
<stop stop-color="white"/>
<stop offset="0.26" stop-color="#FBFBFC"/>
<stop offset="0.53" stop-color="#EEF0F1"/>
<stop offset="0.81" stop-color="#DADDE0"/>
<stop offset="1" stop-color="#C7CCD0"/>
</linearGradient>
<linearGradient id="paint14_linear" x1="26.6116" y1="30.1931" x2="81.6321" y2="80.0655" gradientUnits="userSpaceOnUse">
<stop stop-color="white"/>
<stop offset="0.26" stop-color="#FBFBFB"/>
<stop offset="0.53" stop-color="#EEF0F1"/>
<stop offset="0.81" stop-color="#DADDE0"/>
<stop offset="1" stop-color="#C7CCD0"/>
</linearGradient>
<linearGradient id="paint15_linear" x1="28.6539" y1="29.6744" x2="79.5887" y2="80.6092" gradientUnits="userSpaceOnUse">
<stop stop-color="white"/>
<stop offset="0.26" stop-color="#FBFBFB"/>
<stop offset="0.54" stop-color="#EEF0F1"/>
<stop offset="0.81" stop-color="#D9DDE0"/>
<stop offset="1" stop-color="#C7CCD0"/>
</linearGradient>
<linearGradient id="paint16_linear" x1="16.0904" y1="54.9858" x2="91.8861" y2="54.9858" gradientUnits="userSpaceOnUse">
<stop stop-color="#DEDFE6"/>
<stop offset="1" stop-color="white"/>
</linearGradient>
<linearGradient id="paint17_linear" x1="16.0876" y1="55.0034" x2="91.8783" y2="55.0034" gradientUnits="userSpaceOnUse">
<stop stop-color="#DEDFE6"/>
<stop offset="1" stop-color="white"/>
</linearGradient>
</defs>
</svg>
