<svg width="22" height="22" viewBox="0 0 22 22" fill="none" xmlns="http://www.w3.org/2000/svg">
<path d="M18.3288 3.7555C18.2932 3.23395 18.0609 2.74535 17.6789 2.38851C17.2969 2.03167 16.7936 1.8332 16.2708 1.83325H5.72917L5.58801 1.83784C5.06646 1.87362 4.57796 2.10611 4.22128 2.48831C3.86461 2.87051 3.66638 3.37389 3.66667 3.89667V18.1032L3.67126 18.2443C3.7068 18.7659 3.93907 19.2545 4.3211 19.6113C4.70313 19.9682 5.20641 20.1666 5.72917 20.1666H12.6665L11.2915 18.7916H5.72917L5.63567 18.7852C5.47108 18.7626 5.32024 18.6811 5.21104 18.5559C5.10184 18.4307 5.04168 18.2702 5.04167 18.1041V3.89667L5.04809 3.80317C5.07068 3.63858 5.15211 3.48774 5.27732 3.37854C5.40253 3.26934 5.56304 3.20918 5.72917 3.20917H16.2708L16.3643 3.21559C16.5289 3.23818 16.6798 3.31961 16.789 3.44482C16.8982 3.57002 16.9583 3.73053 16.9583 3.89667V14.4998L18.0208 13.4373C18.1179 13.3402 18.2224 13.254 18.3324 13.1807V3.89575L18.3288 3.75459V3.7555Z" fill="white"/>
<path d="M14.9307 20.1655C14.9075 20.1668 14.8842 20.1668 14.861 20.1655C14.6907 20.157 14.5296 20.0854 14.4091 19.9648L12.1174 17.6713C11.9886 17.5422 11.9163 17.3672 11.9164 17.1848C11.9166 17.0024 11.9892 16.8276 12.1183 16.6987C12.2474 16.5699 12.4224 16.4976 12.6048 16.4977C12.7872 16.4979 12.9621 16.5705 13.0909 16.6996L14.8958 18.5064L18.9933 14.4089C19.0568 14.3432 19.1327 14.2909 19.2166 14.2549C19.3005 14.2189 19.3907 14.2 19.482 14.1992C19.5732 14.1985 19.6638 14.2159 19.7482 14.2505C19.8327 14.2851 19.9095 14.3362 19.974 14.4008C20.0385 14.4654 20.0895 14.5422 20.124 14.6267C20.1586 14.7112 20.1759 14.8017 20.1751 14.893C20.1742 14.9843 20.1552 15.0745 20.1192 15.1584C20.0831 15.2422 20.0307 15.3181 19.965 15.3815L15.3817 19.9648C15.2614 20.0852 15.1007 20.1568 14.9307 20.1655Z" fill="white"/>
<path d="M12.6876 15.125C12.632 15.1228 12.5763 15.1228 12.5208 15.125H10.3088C10.1265 15.125 9.95163 15.0526 9.8227 14.9236C9.69377 14.7947 9.62134 14.6198 9.62134 14.4375C9.62134 14.2552 9.69377 14.0803 9.8227 13.9514C9.95163 13.8224 10.1265 13.75 10.3088 13.75H14.8958C15.0782 13.75 15.253 13.8224 15.382 13.9514C15.5109 14.0803 15.5833 14.2552 15.5833 14.4375C15.5833 14.6198 15.5109 14.7947 15.382 14.9236C15.253 15.0526 15.0782 15.125 14.8958 15.125H12.6867H12.6876Z" fill="white"/>
<path d="M8.25001 7.10588C8.25001 7.34899 8.15343 7.58215 7.98152 7.75406C7.80961 7.92596 7.57645 8.02254 7.33334 8.02254C7.09022 8.02254 6.85707 7.92596 6.68516 7.75406C6.51325 7.58215 6.41667 7.34899 6.41667 7.10588C6.41667 6.86276 6.51325 6.6296 6.68516 6.45769C6.85707 6.28579 7.09022 6.18921 7.33334 6.18921C7.57645 6.18921 7.80961 6.28579 7.98152 6.45769C8.15343 6.6296 8.25001 6.86276 8.25001 7.10588Z" fill="white"/>
<path d="M9.62134 7.104C9.62134 6.92167 9.69377 6.7468 9.8227 6.61787C9.95163 6.48894 10.1265 6.4165 10.3088 6.4165H14.8958C15.0782 6.4165 15.253 6.48894 15.382 6.61787C15.5109 6.7468 15.5833 6.92167 15.5833 7.104C15.5833 7.28634 15.5109 7.46121 15.382 7.59014C15.253 7.71907 15.0782 7.7915 14.8958 7.7915H10.3088C10.1265 7.7915 9.95163 7.71907 9.8227 7.59014C9.69377 7.46121 9.62134 7.28634 9.62134 7.104Z" fill="white"/>
<path d="M10.3088 10.0833C10.1265 10.0833 9.95163 10.1557 9.8227 10.2846C9.69377 10.4135 9.62134 10.5884 9.62134 10.7708C9.62134 10.9531 9.69377 11.128 9.8227 11.2569C9.95163 11.3858 10.1265 11.4583 10.3088 11.4583H14.8958C14.9861 11.4583 15.0755 11.4405 15.1589 11.4059C15.2423 11.3714 15.3181 11.3207 15.382 11.2569C15.4458 11.193 15.4965 11.1173 15.531 11.0338C15.5656 10.9504 15.5833 10.861 15.5833 10.7708C15.5833 10.6805 15.5656 10.5911 15.531 10.5077C15.4965 10.4242 15.4458 10.3485 15.382 10.2846C15.3181 10.2208 15.2423 10.1701 15.1589 10.1356C15.0755 10.101 14.9861 10.0833 14.8958 10.0833H10.3088Z" fill="white"/>
<path d="M7.33334 11.6873C7.57645 11.6873 7.80961 11.5908 7.98152 11.4189C8.15343 11.2469 8.25001 11.0138 8.25001 10.7707C8.25001 10.5276 8.15343 10.2944 7.98152 10.1225C7.80961 9.95058 7.57645 9.854 7.33334 9.854C7.09022 9.854 6.85707 9.95058 6.68516 10.1225C6.51325 10.2944 6.41667 10.5276 6.41667 10.7707C6.41667 11.0138 6.51325 11.2469 6.68516 11.4189C6.85707 11.5908 7.09022 11.6873 7.33334 11.6873Z" fill="white"/>
<path d="M8.25001 14.4357C8.25001 14.6788 8.15343 14.912 7.98152 15.0839C7.80961 15.2558 7.57645 15.3524 7.33334 15.3524C7.09022 15.3524 6.85707 15.2558 6.68516 15.0839C6.51325 14.912 6.41667 14.6788 6.41667 14.4357C6.41667 14.1926 6.51325 13.9594 6.68516 13.7875C6.85707 13.6156 7.09022 13.519 7.33334 13.519C7.57645 13.519 7.80961 13.6156 7.98152 13.7875C8.15343 13.9594 8.25001 14.1926 8.25001 14.4357Z" fill="white"/>
</svg>
