<svg width="20" height="18" viewBox="0 0 20 18" fill="none" xmlns="http://www.w3.org/2000/svg">
<path d="M17.5 3.29362H14.1797V2.45106C14.1797 1.7617 13.9388 1.18085 13.457 0.708511C12.9753 0.23617 12.3828 0 11.6797 0H8.32031C7.61719 0 7.02474 0.23617 6.54297 0.708511C6.0612 1.18085 5.82031 1.7617 5.82031 2.45106V3.29362H2.5C1.79688 3.29362 1.20443 3.5234 0.722656 3.98298C0.240885 4.44255 0 5.02979 0 5.74468V9C0 9.53617 0.273438 9.80426 0.820312 9.80426V16.3532C0.820312 16.7872 0.989583 17.1702 1.32812 17.5021C1.66667 17.834 2.05729 18 2.5 18H17.5C17.9427 18 18.3333 17.834 18.6719 17.5021C19.0104 17.1702 19.1797 16.7872 19.1797 16.3532V9.80426C19.7266 9.80426 20 9.53617 20 9V5.74468C20 5.02979 19.7591 4.44255 19.2773 3.98298C18.7956 3.5234 18.2031 3.29362 17.5 3.29362ZM7.5 2.45106C7.5 2.22128 7.57812 2.02979 7.73438 1.8766C7.89062 1.7234 8.08594 1.64681 8.32031 1.64681H11.6797C11.9141 1.64681 12.1094 1.7234 12.2656 1.8766C12.4219 2.02979 12.5 2.22128 12.5 2.45106V3.29362H7.5V2.45106ZM2.5 16.3532V9.80426H7.5V12.2553C7.5 12.7149 7.66276 13.1043 7.98828 13.4234C8.3138 13.7426 8.71094 13.9021 9.17969 13.9021H10.8203C11.2891 13.9021 11.6862 13.7426 12.0117 13.4234C12.3372 13.1043 12.5 12.7149 12.5 12.2553V9.80426H17.5V16.3532H2.5ZM9.17969 12.2553V9.80426H10.8203V12.2553H9.17969ZM18.3203 8.19574H1.67969V5.74468C1.67969 5.18298 1.95312 4.90213 2.5 4.90213H17.5C18.0469 4.90213 18.3203 5.18298 18.3203 5.74468V8.19574Z" fill="white"/>
</svg>
