<svg width="24" height="27" viewBox="0 0 24 27" fill="none" xmlns="http://www.w3.org/2000/svg">
<path d="M14.4 4.3999C14.4 3.76338 14.1471 3.15293 13.6971 2.70285C13.247 2.25276 12.6365 1.9999 12 1.9999C11.3635 1.9999 10.753 2.25276 10.3029 2.70285C9.85286 3.15293 9.6 3.76338 9.6 4.3999H8C8 3.33904 8.42143 2.32162 9.17157 1.57148C9.92172 0.82133 10.9391 0.399902 12 0.399902C13.0609 0.399902 14.0783 0.82133 14.8284 1.57148C15.5786 2.32162 16 3.33904 16 4.3999H23.2C23.4122 4.3999 23.6157 4.48419 23.7657 4.63422C23.9157 4.78425 24 4.98773 24 5.1999C24 5.41208 23.9157 5.61556 23.7657 5.76559C23.6157 5.91562 23.4122 5.9999 23.2 5.9999H22.3136L20.24 23.9679C20.1497 24.7477 19.7759 25.4672 19.1897 25.9894C18.6035 26.5115 17.8458 26.8 17.0608 26.7999H6.9392C6.15416 26.8 5.39646 26.5115 4.81027 25.9894C4.22407 25.4672 3.85028 24.7477 3.76 23.9679L1.6848 5.9999H0.8C0.612759 5.99996 0.431428 5.93435 0.287586 5.81448C0.143743 5.69461 0.0465032 5.52809 0.0127998 5.3439L0 5.1999C0 4.98773 0.0842856 4.78425 0.234315 4.63422C0.384344 4.48419 0.587827 4.3999 0.8 4.3999H14.4ZM20.7008 5.9999H3.2976L5.3488 23.7839C5.39396 24.174 5.58097 24.5338 5.87423 24.7949C6.1675 25.056 6.54654 25.2002 6.9392 25.1999H17.0608C17.4532 25.1998 17.8318 25.0554 18.1248 24.7944C18.4177 24.5333 18.6045 24.1737 18.6496 23.7839L20.7008 5.9999ZM9.6 9.9999C9.992 9.9999 10.32 10.2479 10.3872 10.5743L10.4 10.7007V20.5007C10.4 20.8863 10.0416 21.1999 9.6 21.1999C9.208 21.1999 8.88 20.9519 8.8128 20.6255L8.8 20.4991V10.7023C8.8 10.3151 9.1584 10.0015 9.6 10.0015V9.9999ZM14.4 9.9999C14.792 9.9999 15.12 10.2479 15.1872 10.5743L15.2 10.7007V20.5007C15.2 20.8863 14.8416 21.1999 14.4 21.1999C14.008 21.1999 13.68 20.9519 13.6128 20.6255L13.6 20.4991V10.7023C13.6 10.3151 13.9584 10.0015 14.4 10.0015V9.9999Z" fill="#07608D"/>
</svg>
