<svg width="14" height="18" viewBox="0 0 14 18" fill="none" xmlns="http://www.w3.org/2000/svg">
<path d="M13.6914 4.63672L9.48828 0.433594C9.37109 0.316406 9.21289 0.25 9.04688 0.25H0.75C0.404297 0.25 0.125 0.529297 0.125 0.875V17.125C0.125 17.4707 0.404297 17.75 0.75 17.75H13.25C13.5957 17.75 13.875 17.4707 13.875 17.125V5.08008C13.875 4.91406 13.8086 4.75391 13.6914 4.63672ZM12.4336 5.36719H8.75781V1.69141L12.4336 5.36719ZM12.4688 16.3438H1.53125V1.65625H7.42969V5.875C7.42969 6.09256 7.51611 6.30121 7.66995 6.45505C7.82379 6.60889 8.03244 6.69531 8.25 6.69531H12.4688V16.3438ZM7.625 8.21875C7.625 8.13281 7.55469 8.0625 7.46875 8.0625H6.53125C6.44531 8.0625 6.375 8.13281 6.375 8.21875V10.3281H4.26562C4.17969 10.3281 4.10938 10.3984 4.10938 10.4844V11.4219C4.10938 11.5078 4.17969 11.5781 4.26562 11.5781H6.375V13.6875C6.375 13.7734 6.44531 13.8438 6.53125 13.8438H7.46875C7.55469 13.8438 7.625 13.7734 7.625 13.6875V11.5781H9.73438C9.82031 11.5781 9.89062 11.5078 9.89062 11.4219V10.4844C9.89062 10.3984 9.82031 10.3281 9.73438 10.3281H7.625V8.21875Z" fill="#07608D"/>
</svg>
