<svg width="26" height="26" viewBox="0 0 26 26" fill="none" xmlns="http://www.w3.org/2000/svg">
<path d="M0.333328 2.5C0.333328 2.03587 0.500144 1.59075 0.797076 1.26256C1.09401 0.934375 1.49674 0.75 1.91666 0.75H24.0833C24.5033 0.75 24.906 0.934375 25.2029 1.26256C25.4998 1.59075 25.6667 2.03587 25.6667 2.5C25.6667 2.96413 25.4998 3.40925 25.2029 3.73744C24.906 4.06563 24.5033 4.25 24.0833 4.25H1.91666C1.49674 4.25 1.09401 4.06563 0.797076 3.73744C0.500144 3.40925 0.333328 2.96413 0.333328 2.5Z" fill="#07608D"/>
<path d="M0.333328 23.5C0.333328 23.0359 0.500144 22.5908 0.797076 22.2626C1.09401 21.9344 1.49674 21.75 1.91666 21.75H24.0833C24.5033 21.75 24.906 21.9344 25.2029 22.2626C25.4998 22.5908 25.6667 23.0359 25.6667 23.5C25.6667 23.9641 25.4998 24.4093 25.2029 24.7374C24.906 25.0656 24.5033 25.25 24.0833 25.25H1.91666C1.49674 25.25 1.09401 25.0656 0.797076 24.7374C0.500144 24.4093 0.333328 23.9641 0.333328 23.5Z" fill="#07608D"/>
<path d="M1.91666 11.25C1.49674 11.25 1.09401 11.4344 0.797076 11.7626C0.500144 12.0908 0.333328 12.5359 0.333328 13C0.333328 13.4641 0.500144 13.9092 0.797076 14.2374C1.09401 14.5656 1.49674 14.75 1.91666 14.75H14.5833C15.0033 14.75 15.406 14.5656 15.7029 14.2374C15.9998 13.9092 16.1667 13.4641 16.1667 13C16.1667 12.5359 15.9998 12.0908 15.7029 11.7626C15.406 11.4344 15.0033 11.25 14.5833 11.25H1.91666Z" fill="#07608D"/>
</svg>
